<svg width="70" height="70" viewBox="0 0 70 70" fill="none" xmlns="http://www.w3.org/2000/svg">
<mask id="mask0_463_410" style="mask-type:luminance" maskUnits="userSpaceOnUse" x="0" y="0" width="70" height="70">
<path d="M0 0H70V70H0V0Z" fill="white"/>
</mask>
<g mask="url(#mask0_463_410)">
<path d="M34.99 0C15.6646 0 0 15.6646 0 34.99C0 54.3154 15.6646 69.9801 34.99 69.9801C54.3154 69.9801 69.9801 54.3154 69.9801 34.99C69.9801 15.6646 54.3154 0 34.99 0ZM36.6502 19.6576C37.8893 13.6964 43.9884 9.51737 47.3742 16.6122C50.2901 22.12 43.0408 35.8321 37.5089 27.1577C36.1726 25.0441 36.0913 22.0311 36.6502 19.6576ZM22.6058 16.6122C25.9909 9.50906 32.0983 13.6881 33.3291 19.6576C33.888 22.0311 33.8074 25.0441 32.4712 27.166C26.931 35.8321 19.69 22.12 22.6058 16.6122ZM11.8004 28.5513C14.3358 21.8933 20.1517 25.2136 21.7064 30.5029C22.3866 32.6007 22.5327 35.3305 21.4797 37.3386C17.1221 45.5762 9.57301 33.7343 11.8004 28.5513ZM47.4141 56.9722C46.4665 57.1424 45.4625 57.1341 44.4584 56.9722C42.7327 56.689 40.9994 55.9274 39.5743 54.8179C39.4605 54.729 39.3476 54.6393 39.2255 54.5588C37.6218 53.4733 36.3022 52.9302 34.9817 52.9302C33.6613 52.9302 32.3416 53.4733 30.7371 54.5588C30.6159 54.6393 30.5029 54.729 30.3891 54.8179C28.964 55.9357 27.2383 56.689 25.5051 56.9722C24.501 57.1341 23.4969 57.1424 22.5485 56.9722C19.3412 56.3809 17.2434 53.2549 17.8272 50.0467C19.009 43.5432 25.4893 34.8281 31.742 32.188C32.7701 31.7503 33.8805 31.5319 34.9734 31.5319C36.0755 31.5319 37.1767 31.7503 38.2057 32.188C44.4584 34.8281 50.9379 43.5432 52.1205 50.0467C52.7201 53.2549 50.6223 56.3809 47.4141 56.9722ZM48.5079 37.347C47.4548 35.3305 47.601 32.609 48.2811 30.5112C49.8366 25.2219 55.6517 21.9016 58.1872 28.5588C60.4062 33.7343 52.8571 45.5762 48.5079 37.347Z" fill="white"/>
</g>
</svg>
