<svg xmlns="http://www.w3.org/2000/svg" xmlns:xlink="http://www.w3.org/1999/xlink" width="500" zoomAndPan="magnify" viewBox="0 0 375 374.999991" height="500" preserveAspectRatio="xMidYMid meet" version="1.0"><defs><clipPath id="3a402b5e20"><path d="M 16.703125 10.859375 L 366.953125 10.859375 L 366.953125 361 L 16.703125 361 Z M 16.703125 10.859375 " clip-rule="nonzero"/></clipPath></defs><g clip-path="url(#3a402b5e20)"><path fill="#ffffff" d="M 191.671875 10.859375 C 95.035156 10.859375 16.703125 89.1875 16.703125 185.824219 C 16.703125 282.460938 95.035156 360.792969 191.671875 360.792969 C 288.308594 360.792969 366.636719 282.460938 366.636719 185.824219 C 366.636719 89.1875 288.308594 10.859375 191.671875 10.859375 Z M 199.972656 109.15625 C 206.171875 79.34375 236.667969 58.445312 253.597656 93.925781 C 268.179688 121.46875 231.929688 190.035156 204.265625 146.660156 C 197.582031 136.089844 197.179688 121.023438 199.972656 109.15625 Z M 129.742188 93.925781 C 146.671875 58.40625 177.210938 79.304688 183.367188 109.15625 C 186.164062 121.023438 185.757812 136.089844 179.074219 146.699219 C 151.371094 190.035156 115.164062 121.46875 129.742188 93.925781 Z M 75.714844 153.625 C 88.390625 120.332031 117.472656 136.9375 125.246094 163.386719 C 128.648438 173.875 129.378906 187.523438 124.113281 197.570312 C 102.324219 238.761719 64.578125 179.546875 75.714844 153.625 Z M 253.800781 295.746094 C 249.0625 296.597656 244.039062 296.554688 239.015625 295.746094 C 230.390625 294.328125 221.722656 290.519531 214.59375 284.972656 C 214.027344 284.527344 213.460938 284.082031 212.851562 283.675781 C 204.832031 278.25 198.230469 275.535156 191.628906 275.535156 C 185.027344 275.535156 178.425781 278.25 170.40625 283.675781 C 169.800781 284.082031 169.234375 284.527344 168.664062 284.972656 C 161.539062 290.5625 152.910156 294.328125 144.242188 295.746094 C 139.222656 296.554688 134.199219 296.597656 129.460938 295.746094 C 113.421875 292.789062 102.933594 277.15625 105.847656 261.117188 C 111.761719 228.59375 144.164062 185.015625 175.429688 171.8125 C 180.574219 169.625 186.121094 168.53125 191.589844 168.53125 C 197.097656 168.53125 202.605469 169.625 207.75 171.8125 C 239.015625 185.015625 271.417969 228.59375 277.332031 261.117188 C 280.328125 277.15625 269.839844 292.789062 253.800781 295.746094 Z M 259.269531 197.609375 C 254.003906 187.523438 254.730469 173.917969 258.132812 163.425781 C 265.910156 136.980469 294.988281 120.375 307.667969 153.664062 C 318.765625 179.546875 281.015625 238.761719 259.269531 197.609375 Z M 259.269531 197.609375 " fill-opacity="1" fill-rule="nonzero"/></g></svg>